<svg width="24" height="24" viewBox="0 0 24 24" fill="none" xmlns="http://www.w3.org/2000/svg">
<path d="M22.7922 17.0708C22.9269 16.8959 23 16.6813 23 16.4605C23 14.8122 22.7884 13.1473 22.3689 11.4676C21.9639 9.80328 21.5198 8.47565 21.0173 7.53929L20.4243 6.3206C20.3575 6.18325 20.26 6.06303 20.1395 5.96917C19.6327 5.57446 19.0777 5.25296 18.4773 5.0046C17.972 4.73986 17.4766 4.5408 16.996 4.42877C16.6307 4.29912 16.2706 4.20387 15.9176 4.14964C15.597 4.06347 15.2717 4 14.9766 4H14.709C14.3988 4 14.1062 4.14396 13.9169 4.3897L13.7162 4.65016C13.681 4.69583 13.6502 4.74402 13.6237 4.79414C13.1947 4.75058 12.76 4.7247 12.3197 4.71645C11.6444 4.70381 10.9831 4.7261 10.3361 4.78368C10.3121 4.73057 10.2833 4.67923 10.2498 4.63032L10.116 4.43497C9.92961 4.16275 9.62091 4 9.29097 4C7.46875 4 5.6649 4.68616 3.89579 5.9429C3.76509 6.03575 3.65863 6.15866 3.58539 6.30126C3.4002 6.66181 3.17219 7.1282 2.90243 7.69718C2.59328 8.34925 2.19385 9.57989 1.70656 11.3049L1.70188 11.322C1.23664 13.0884 1 14.8021 1 16.4605C1 16.5908 1.02549 16.7199 1.07504 16.8405C1.21859 17.1899 1.44533 17.5196 1.70855 17.827C1.72825 17.8501 1.74898 17.8722 1.77068 17.8933C2.15352 18.266 2.85571 18.6943 3.73534 19.1653C4.78678 19.7283 5.95501 20 7.21739 20C7.49448 20 7.75914 19.885 7.94826 19.6825C8.40043 19.1983 8.79549 18.7265 9.12958 18.2673C9.73747 18.4037 10.3619 18.5021 11.0024 18.563C11.0108 18.5638 11.0192 18.5644 11.0276 18.565C12.2938 18.6531 13.5635 18.5574 14.8345 18.2828C14.8525 18.3078 14.8718 18.332 14.8922 18.3554L16.0293 19.6577C16.2192 19.8752 16.4939 20 16.7826 20C17.5764 20 18.3216 19.9035 19.0093 19.6975C19.0233 19.6933 19.0371 19.6888 19.0508 19.6841C19.7081 19.4556 20.2722 19.2113 20.7138 18.9427C20.719 18.9395 20.7241 18.9363 20.7293 18.933C20.7323 18.9311 20.7353 18.9292 20.7384 18.9272C21.1589 18.6543 21.5241 18.3946 21.8273 18.1487L21.8274 18.1488L21.838 18.1399C22.1365 17.8909 22.442 17.5993 22.6354 17.2743L22.7922 17.0708Z" stroke="white" stroke-width="2" stroke-linecap="round" stroke-linejoin="round"/>
<path d="M16.7826 13.0744C16.7826 12.5535 16.6042 12.1194 16.2475 11.7721C15.9353 11.4248 15.534 11.2512 15.0435 11.2512C14.8205 11.2512 14.5975 11.2946 14.3746 11.3814C14.1516 11.4682 13.9509 11.5985 13.7726 11.7721C13.6388 11.9457 13.5273 12.1411 13.4381 12.3581C13.3489 12.5752 13.3043 12.814 13.3043 13.0744C13.3043 13.4217 13.3712 13.7473 13.505 14.0512C13.6834 14.3116 13.9064 14.5287 14.1739 14.7023C14.4415 14.876 14.7313 14.9628 15.0435 14.9628C15.534 14.9628 15.9353 14.7891 16.2475 14.4419C16.6042 14.0512 16.7826 13.5954 16.7826 13.0744Z" fill="white"/>
<path d="M8.82274 11.2512C8.33222 11.2512 7.90858 11.4248 7.55184 11.7721C7.23969 12.1194 7.08361 12.5535 7.08361 13.0744C7.08361 13.5954 7.23969 14.0512 7.55184 14.4419C7.90858 14.7891 8.33222 14.9628 8.82274 14.9628C9.31327 14.9628 9.7146 14.7891 10.0268 14.4419C10.3835 14.0512 10.5619 13.5954 10.5619 13.0744C10.5619 12.5535 10.3835 12.1194 10.0268 11.7721C9.7146 11.4248 9.31327 11.2512 8.82274 11.2512Z" fill="white"/>
</svg>
